0
SECTION
2
HEADER
9
$INSUNITS
70
4
9
$ACADVER
1
AC1014
9
$HANDSEED
5
FFFF
0
ENDSEC
0
SECTION
2
TABLES
0
TABLE
2
VPORT
5
8
100
AcDbSymbolTable
0
ENDTAB
0
TABLE
2
LTYPE
5
5
100
AcDbSymbolTable
0
LTYPE
5
14
100
AcDbSymbolTableRecord
100
AcDbLinetypeTableRecord
2
BYBLOCK
70
0
0
LTYPE
5
15
100
AcDbSymbolTableRecord
100
AcDbLinetypeTableRecord
2
BYLAYER
70
0
0
ENDTAB
0
TABLE
2
LAYER
5
2
100
AcDbSymbolTable
70
2
0
LAYER
5
50
100
AcDbSymbolTableRecord
100
AcDbLayerTableRecord
2
0
70
0
6
CONTINUOUS
0
ENDTAB
0
TABLE
2
STYLE
5
3
100
AcDbSymbolTable
70
1
0
STYLE
5
11
100
AcDbSymbolTableRecord
100
AcDbTextStyleTableRecord
2
STANDARD
70
0
0
ENDTAB
0
TABLE
2
VIEW
5
6
100
AcDbSymbolTable
70
0
0
ENDTAB
0
TABLE
2
UCS
5
7
100
AcDbSymbolTable
70
0
0
ENDTAB
0
TABLE
2
APPID
5
9
100
AcDbSymbolTable
70
2
0
APPID
5
12
100
AcDbSymbolTableRecord
100
AcDbRegAppTableRecord
2
ACAD
70
0
0
ENDTAB
0
TABLE
2
DIMSTYLE
5
A
100
AcDbSymbolTable
70
1
0
ENDTAB
0
TABLE
2
BLOCK_RECORD
5
1
100
AcDbSymbolTable
70
1
0
BLOCK_RECORD
5
1F
100
AcDbSymbolTableRecord
100
AcDbBlockTableRecord
2
*MODEL_SPACE
0
BLOCK_RECORD
5
1B
100
AcDbSymbolTableRecord
100
AcDbBlockTableRecord
2
*PAPER_SPACE
0
ENDTAB
0
ENDSEC
0
SECTION
2
BLOCKS
0
BLOCK
5
20
100
AcDbEntity
100
AcDbBlockBegin
2
*MODEL_SPACE
0
ENDBLK
5
21
100
AcDbEntity
100
AcDbBlockEnd
0
BLOCK
5
1C
100
AcDbEntity
100
AcDbBlockBegin
2
*PAPER_SPACE
0
ENDBLK
5
1D
100
AcDbEntity
100
AcDbBlockEnd
0
ENDSEC
0
SECTION
2
ENTITIES
0
CIRCLE
5
100
100
AcDbEntity
8
0
100
AcDbCircle
10
95.703592907935686
20
64.893523545678576
30
0
40
1.5000000000000213
210
0
220
0
230
1
0
CIRCLE
5
101
100
AcDbEntity
8
0
100
AcDbCircle
10
179.70359290793567
20
64.893523545678576
30
0
40
1.5000000000000213
210
0
220
0
230
1
0
CIRCLE
5
102
100
AcDbEntity
8
0
100
AcDbCircle
10
95.703592907935686
20
84.893523545678562
30
0
40
1.4999999999999858
210
0
220
0
230
1
0
CIRCLE
5
103
100
AcDbEntity
8
0
100
AcDbCircle
10
179.70359290793567
20
84.893523545678562
30
0
40
1.4999999999999858
210
0
220
0
230
1
0
CIRCLE
5
104
100
AcDbEntity
8
0
100
AcDbCircle
10
150.20359290793567
20
81.146721963347034
30
0
40
1.5000000000000036
210
0
220
-0
230
1
0
CIRCLE
5
105
100
AcDbEntity
8
0
100
AcDbCircle
10
25.203592907935679
20
81.146721963347034
30
0
40
1.5000000000000036
210
0
220
-0
230
1
0
CIRCLE
5
106
100
AcDbEntity
8
0
100
AcDbCircle
10
225.20359290793567
20
81.146721963347034
30
0
40
1.5000000000000213
210
0
220
-0
230
1
0
CIRCLE
5
107
100
AcDbEntity
8
0
100
AcDbCircle
10
125.20359290793567
20
81.146721963347034
30
0
40
1.5000000000000036
210
0
220
-0
230
1
0
CIRCLE
5
108
100
AcDbEntity
8
0
100
AcDbCircle
10
50.203592907935679
20
81.146721963347034
30
0
40
1.5000000000000036
210
0
220
-0
230
1
0
CIRCLE
5
109
100
AcDbEntity
8
0
100
AcDbCircle
10
250.20359290793567
20
81.146721963347034
30
0
40
1.5000000000000213
210
0
220
-0
230
1
0
SPLINE
5
110
100
AcDbEntity
8
0
100
AcDbSpline
70
0
71
3
72
9
73
5
74
0
42
0.000000001
43
0.0000000001
44
0.0000000001
40
0
40
0
40
0
40
0
40
0.0063959923494241186
40
0.011777913214058583
40
0.011777913214058583
40
0.011777913214058583
40
0.011777913214058583
10
239.6303003243296
20
75.713654590929821
30
0
10
239.6206743281725
20
75.694611535527713
30
0
10
239.60294851783016
20
75.659544662147724
30
0
10
239.58896510436807
20
75.622831253897075
30
0
10
239.58257537952446
20
75.606055051331737
30
0
0
SPLINE
5
111
100
AcDbEntity
8
0
100
AcDbSpline
70
0
71
3
72
9
73
5
74
0
42
0.000000001
43
0.0000000001
44
0.0000000001
40
0
40
0
40
0
40
0
40
0.16412860603279916
40
0.35328539043914076
40
0.35328539043914076
40
0.35328539043914076
40
0.35328539043914076
10
239.58257537952446
20
75.606055051331737
30
0
10
239.28912321618466
20
76.079071403250083
30
0
10
238.65746999858533
20
77.097234967852458
30
0
10
238.61785083936044
20
78.298543542797702
30
0
10
238.59663786831021
20
78.941750630512104
30
0
0
SPLINE
5
112
100
AcDbEntity
8
0
100
AcDbSpline
70
0
71
3
72
9
73
5
74
0
42
0.000000001
43
0.0000000001
44
0.0000000001
40
0
40
0
40
0
40
0
40
0.13378586725647562
40
0.26311638659446041
40
0.26311638659446041
40
0.26311638659446041
40
0.26311638659446041
10
238.59663786831021
20
78.941750630512104
30
0
10
238.61979940336468
20
79.389413754126082
30
0
10
238.66535114613455
20
80.269831887314183
30
0
10
238.94412918120381
20
81.105999205940094
30
0
10
239.08115792548762
20
81.517003457598562
30
0
0
SPLINE
5
113
100
AcDbEntity
8
0
100
AcDbSpline
70
0
71
3
72
9
73
5
74
0
42
0.000000001
43
0.0000000001
44
0.0000000001
40
0
40
0
40
0
40
0
40
0.1241158660386644
40
0.24363156498620014
40
0.24363156498620014
40
0.24363156498620014
40
0.24363156498620014
10
239.08115792548762
20
81.517003457598562
30
0
10
239.25136664662352
20
81.897958562553725
30
0
10
239.58547555975582
20
82.645749246951752
30
0
10
240.15331248958606
20
83.235562770206926
30
0
10
240.43187010407547
20
83.524901204184232
30
0
0
SPLINE
5
114
100
AcDbEntity
8
0
100
AcDbSpline
70
0
71
3
72
9
73
5
74
0
42
0.000000001
43
0.0000000001
44
0.0000000001
40
0
40
0
40
0
40
0
40
0.081686537954042945
40
0.16766914296917551
40
0.16766914296917551
40
0.16766914296917551
40
0.16766914296917551
10
240.43187010407547
20
83.524901204184232
30
0
10
240.64372776330376
20
83.698658242161059
30
0
10
241.0785851222268
20
84.055310566670499
30
0
10
241.60070567944288
20
84.264933074758943
30
0
10
241.86845491968114
20
84.372429832934458
30
0
0
SPLINE
5
115
100
AcDbEntity
8
0
100
AcDbSpline
70
0
71
3
72
9
73
5
74
0
42
0.000000001
43
0.0000000001
44
0.0000000001
40
0
40
0
40
0
40
0
40
0.090258078464738059
40
0.18456675857525728
40
0.18456675857525728
40
0.18456675857525728
40
0.18456675857525728
10
241.86845491968114
20
84.372429832934458
30
0
10
242.1581110014678
20
84.458940649368159
30
0
10
242.75042234939724
20
84.635844714272537
30
0
10
243.368560448636
20
84.650989640557498
30
0
10
243.68441249434153
20
84.658728293060989
30
0
0
SPLINE
5
116
100
AcDbEntity
8
0
100
AcDbSpline
70
0
71
3
72
9
73
5
74
0
42
0.000000001
43
0.0000000001
44
0.0000000001
40
0
40
0
40
0
40
0
40
0.13722860189382546
40
0.25841853869561565
40
0.25841853869561565
40
0.25841853869561565
40
0.25841853869561565
10
243.68441249434153
20
84.658728293060989
30
0
10
244.14684102894381
20
84.634647605619847
30
0
10
245.01765151971551
20
84.589300673759865
30
0
10
245.79873559036375
20
84.20494314269844
30
0
10
246.16503875745286
20
84.02469189163206
30
0
0
LINE
5
117
100
AcDbEntity
8
0
100
AcDbLine
10
246.16503875745292
20
84.024691891632074
30
0
11
246.14093011386439
21
82.108305651277718
31
0
0
SPLINE
5
118
100
AcDbEntity
8
0
100
AcDbSpline
70
0
71
3
72
9
73
5
74
0
42
0.000000001
43
0.0000000001
44
0.0000000001
40
0
40
0
40
0
40
0
40
0.11846518140888927
40
0.23341091271580139
40
0.23341091271580139
40
0.23341091271580139
40
0.23341091271580139
10
246.14093011386433
20
82.108305651277703
30
0
10
245.79119501725
20
82.302043325115903
30
0
10
245.1021150096168
20
82.683762972528001
30
0
10
244.31765853753032
20
82.751799082066682
30
0
10
243.93134445386869
20
82.785304200894274
30
0
0
SPLINE
5
119
100
AcDbEntity
8
0
100
AcDbSpline
70
0
71
3
72
9
73
5
74
0
42
0.000000001
43
0.0000000001
44
0.0000000001
40
0
40
0
40
0
40
0
40
0.12156366217080807
40
0.22974643164616587
40
0.22974643164616587
40
0.22974643164616587
40
0.22974643164616587
10
243.93134445386869
20
82.785304200894274
30
0
10
243.51682787897403
20
82.767714786889343
30
0
10
242.73342186569988
20
82.734472080720224
30
0
10
242.09158454557181
20
82.28818331910918
30
0
10
241.78935683153691
20
82.078035314324637
30
0
0
SPLINE
5
120
100
AcDbEntity
8
0
100
AcDbSpline
70
0
71
3
72
9
73
5
74
0
42
0.000000001
43
0.0000000001
44
0.0000000001
40
0
40
0
40
0
40
0
40
0.10726488158222632
40
0.22492475835979014
40
0.22492475835979014
40
0.22492475835979014
40
0.22492475835979014
10
241.78935683153691
20
82.078035314324637
30
0
10
241.55043420076512
20
81.802461085024945
30
0
10
241.04943504614593
20
81.224606842134634
30
0
10
240.92498361478391
20
80.468232104991273
30
0
10
240.85988211068263
20
80.072566643265645
30
0
0
SPLINE
5
121
100
AcDbEntity
8
0
100
AcDbSpline
70
0
71
3
72
9
73
5
74
0
42
0.000000001
43
0.0000000001
44
0.0000000001
40
0
40
0
40
0
40
0
40
0.13088506723531856
40
0.28185586194718892
40
0.28185586194718892
40
0.28185586194718892
40
0.28185586194718892
10
240.85988211068263
20
80.072566643265645
30
0
10
241.21709991971187
20
80.340458219830282
30
0
10
241.98635446947495
20
80.91735222932995
30
0
10
242.95122476807637
20
80.954836825732897
30
0
10
243.46803940789758
20
80.974914745238692
30
0
0
SPLINE
5
122
100
AcDbEntity
8
0
100
AcDbSpline
70
0
71
3
72
9
73
5
74
0
42
0.000000001
43
0.0000000001
44
0.0000000001
40
0
40
0
40
0
40
0
40
0.1399748091359114
40
0.27177953199432497
40
0.27177953199432497
40
0.27177953199432497
40
0.27177953199432497
10
243.46803940789758
20
80.974914745238692
30
0
10
243.94359156109346
20
80.935996336812167
30
0
10
244.86693871500142
20
80.860431119803366
30
0
10
245.60844903569949
20
80.307414912395089
30
0
10
245.96805875906273
20
80.039219042681168
30
0
0
SPLINE
5
123
100
AcDbEntity
8
0
100
AcDbSpline
70
0
71
3
72
9
73
5
74
0
42
0.000000001
43
0.0000000001
44
0.0000000001
40
0
40
0
40
0
40
0
40
0.12851034598133171
40
0.26203924535162648
40
0.26203924535162648
40
0.26203924535162648
40
0.26203924535162648
10
245.96805875906273
20
80.039219042681168
30
0
10
246.25461239758155
20
79.704947615644798
30
0
10
246.83891009452452
20
79.023350878710119
30
0
10
246.90272217341712
20
78.126729136606144
30
0
10
246.93523927462314
20
77.669832253797765
30
0
0
SPLINE
5
124
100
AcDbEntity
8
0
100
AcDbSpline
70
0
71
3
72
9
73
5
74
0
42
0.000000001
43
0.0000000001
44
0.0000000001
40
0
40
0
40
0
40
0
40
0.096213462521085633
40
0.19174955162054555
40
0.19174955162054555
40
0.19174955162054555
40
0.19174955162054555
10
246.93523927462314
20
77.669832253797765
30
0
10
246.91376068206745
20
77.345348503990692
30
0
10
246.87095471308879
20
76.698665473328262
30
0
10
246.55298524243537
20
76.134015468444545
30
0
10
246.39456213571867
20
75.852687805768525
30
0
0
SPLINE
5
125
100
AcDbEntity
8
0
100
AcDbSpline
70
0
71
3
72
9
73
5
74
0
42
0.000000001
43
0.0000000001
44
0.0000000001
40
0
40
0
40
0
40
0
40
0.096793122890621919
40
0.19595019949124276
40
0.19595019949124276
40
0.19595019949124276
40
0.19595019949124276
10
246.39456213571867
20
75.852687805768525
30
0
10
246.19547198541926
20
75.594106168163421
30
0
10
245.79242935694657
20
75.070627619684842
30
0
10
245.21434575866695
20
74.750343761344752
30
0
10
244.9218169437691
20
74.588269871357255
30
0
0
SPLINE
5
126
100
AcDbEntity
8
0
100
AcDbSpline
70
0
71
3
72
9
73
5
74
0
42
0.000000001
43
0.0000000001
44
0.0000000001
40
0
40
0
40
0
40
0
40
0.10225430112012272
40
0.20756401269449945
40
0.20756401269449945
40
0.20756401269449945
40
0.20756401269449945
10
244.9218169437691
20
74.588269871357255
30
0
10
244.60282549246071
20
74.459976022860971
30
0
10
243.95531096325729
20
74.199554840512562
30
0
10
243.25739336790889
20
74.182026623305617
30
0
10
242.90329778209554
20
74.173133504144403
30
0
0
SPLINE
5
127
100
AcDbEntity
8
0
100
AcDbSpline
70
0
71
3
72
9
73
5
74
0
42
0.000000001
43
0.0000000001
44
0.0000000001
40
0
40
0
40
0
40
0
40
0.15838953658865013
40
0.29762965138958808
40
0.29762965138958808
40
0.29762965138958808
40
0.29762965138958808
10
242.90329778209554
20
74.173133504144403
30
0
10
242.36557185279509
20
74.205955921161035
30
0
10
241.35513148957534
20
74.26763249869785
30
0
10
240.51160425383785
20
74.82211386358442
30
0
10
240.11697680797204
20
75.081516945707861
30
0
0
SPLINE
5
128
100
AcDbEntity
8
0
100
AcDbSpline
70
0
71
3
72
9
73
5
74
0
42
0.000000001
43
0.0000000001
44
0.0000000001
40
0
40
0
40
0
40
0
40
0.10082344970636935
40
0.23446437277602744
40
0.23446437277602744
40
0.23446437277602744
40
0.23446437277602744
10
240.11697680797204
20
75.081516945707861
30
0
10
240.22684050505362
20
75.399529149075121
30
0
10
240.48232792293214
20
76.139064763208296
30
0
10
240.83790105033373
20
76.836420385505789
30
0
10
241.04057201651119
20
77.233901879040332
30
0
0
SPLINE
5
129
100
AcDbEntity
8
0
100
AcDbSpline
70
0
71
3
72
9
73
5
74
0
42
0.000000001
43
0.0000000001
44
0.0000000001
40
0
40
0
40
0
40
0
40
0.057535938538293509
40
0.11384032937938648
40
0.11384032937938648
40
0.11384032937938648
40
0.11384032937938648
10
241.04057201651119
20
77.233901879040332
30
0
10
241.11811912651353
20
77.055293392587487
30
0
10
241.27155346284948
20
76.701899506187047
30
0
10
241.56706013279052
20
76.454934915478475
30
0
10
241.71321504231346
20
76.332788476558534
30
0
0
SPLINE
5
130
100
AcDbEntity
8
0
100
AcDbSpline
70
0
71
3
72
9
73
5
74
0
42
0.000000001
43
0.0000000001
44
0.0000000001
40
0
40
0
40
0
40
0
40
0.057154628071136818
40
0.11645407846997696
40
0.11645407846997696
40
0.11645407846997696
40
0.11645407846997696
10
241.71321504231346
20
76.332788476558534
30
0
10
241.87818922616944
20
76.233194296888726
30
0
10
242.21432852408199
20
76.030268500573769
30
0
10
242.60373228005369
20
75.978396355131949
30
0
10
242.8020201289273
20
75.951982598257814
30
0
0
SPLINE
5
131
100
AcDbEntity
8
0
100
AcDbSpline
70
0
71
3
72
9
73
5
74
0
42
0.000000001
43
0.0000000001
44
0.0000000001
40
0
40
0
40
0
40
0
40
0.07667479108978309
40
0.14655460050094565
40
0.14655460050094565
40
0.14655460050094565
40
0.14655460050094565
10
242.8020201289273
20
75.951982598257814
30
0
10
243.06281249836223
20
75.9691999371191
30
0
10
243.56128560762031
20
76.002108800418796
30
0
10
243.96705347666509
20
76.291524038604138
30
0
10
244.16053072853643
20
76.429522311029203
30
0
0
SPLINE
5
132
100
AcDbEntity
8
0
100
AcDbSpline
70
0
71
3
72
9
73
5
74
0
42
0.000000001
43
0.0000000001
44
0.0000000001
40
0
40
0
40
0
40
0
40
0.067399884489870207
40
0.13685313217494971
40
0.13685313217494971
40
0.13685313217494971
40
0.13685313217494971
10
244.16053072853643
20
76.429522311029203
30
0
10
244.31595341975429
20
76.600386194603573
30
0
10
244.6315338137745
20
76.947319395152959
30
0
10
244.67791044023062
20
77.414478451317322
30
0
10
244.70144667409585
20
77.651562638726602
30
0
0
SPLINE
5
133
100
AcDbEntity
8
0
100
AcDbSpline
70
0
71
3
72
9
73
5
74
0
42
0.000000001
43
0.0000000001
44
0.0000000001
40
0
40
0
40
0
40
0
40
0.072255803779551056
40
0.14134480446689504
40
0.14134480446689504
40
0.14134480446689504
40
0.14134480446689504
10
244.70144667409585
20
77.651562638726602
30
0
10
244.68352968983024
20
77.899502400028865
30
0
10
244.6484809808658
20
78.38451530207557
30
0
10
244.32099603034968
20
78.742930091400169
30
0
10
244.16092217367952
20
78.918122378936999
30
0
0
SPLINE
5
134
100
AcDbEntity
8
0
100
AcDbSpline
70
0
71
3
72
9
73
5
74
0
42
0.000000001
43
0.0000000001
44
0.0000000001
40
0
40
0
40
0
40
0
40
0.070428741181070592
40
0.14227420206594604
40
0.14227420206594604
40
0.14227420206594604
40
0.14227420206594604
10
244.16092217367952
20
78.918122378936999
30
0
10
243.96530817057541
20
79.055829822774101
30
0
10
243.57014526211148
20
79.334014784792586
30
0
10
243.08856477017738
20
79.376788162516249
30
0
10
242.8453768141477
20
79.398387812990734
30
0
0
SPLINE
5
135
100
AcDbEntity
8
0
100
AcDbSpline
70
0
71
3
72
9
73
5
74
0
42
0.000000001
43
0.0000000001
44
0.0000000001
40
0
40
0
40
0
40
0
40
0.10791704700004519
40
0.22146486131513851
40
0.22146486131513851
40
0.22146486131513851
40
0.22146486131513851
10
242.8453768141477
20
79.398387812990734
30
0
10
242.47510042458856
20
79.356730000752336
30
0
10
241.71522780444599
20
79.271240804498973
30
0
10
241.2023796479674
20
78.701852336701933
30
0
10
240.93943596065799
20
78.409919722062128
30
0
0
SPLINE
5
136
100
AcDbEntity
8
0
100
AcDbSpline
70
0
71
3
72
9
73
5
74
0
42
0.000000001
43
0.0000000001
44
0.0000000001
40
0
40
0
40
0
40
0
40
0.10043483942057636
40
0.24927173350592974
40
0.24927173350592974
40
0.24927173350592974
40
0.24927173350592974
10
240.93943596065799
20
78.409919722062128
30
0
10
240.7599291778447
20
78.126643651646773
30
0
10
240.31440681542455
20
77.42357370559462
30
0
10
240.00111769902188
20
76.651506783786786
30
0
10
239.81405686231847
20
76.190515715719357
30
0
0
SPLINE
5
137
100
AcDbEntity
8
0
100
AcDbSpline
70
0
71
3
72
9
73
5
74
0
42
0.000000001
43
0.0000000001
44
0.0000000001
40
0
40
0
40
0
40
0
40
0.0062641341872978267
40
0.020170751522938363
40
0.020170751522938363
40
0.020170751522938363
40
0.020170751522938363
10
239.81405686231847
20
76.190515715719357
30
0
10
239.80675253985595
20
76.170954383616206
30
0
10
239.7832323423267
20
76.107966146533059
30
0
10
239.75890296038241
20
76.045285260262034
30
0
10
239.74212919742536
20
76.002070256664439
30
0
0
SPLINE
5
138
100
AcDbEntity
8
0
100
AcDbSpline
70
0
71
3
72
9
73
5
74
0
42
0.000000001
43
0.0000000001
44
0.0000000001
40
0
40
0
40
0
40
0
40
0.016597465401002095
40
0.030933692132133123
40
0.030933692132133123
40
0.030933692132133123
40
0.030933692132133123
10
239.74212919742536
20
76.002070256664439
30
0
10
239.72217618043598
20
75.95046869049709
30
0
10
239.68498854547218
20
75.854295755486149
30
0
10
239.64761916998935
20
75.75819329728138
30
0
10
239.6303003243296
20
75.713654590929821
30
0
0
SPLINE
5
139
100
AcDbEntity
8
0
100
AcDbSpline
70
0
71
3
72
9
73
5
74
0
42
0.000000001
43
0.0000000001
44
0.0000000001
40
-0.2455507509729494
40
-0.2455507509729494
40
-0.2455507509729494
40
-0.2455507509729494
40
-0.1072430610077004
40
0
40
0
40
0
40
0
10
141.36522452692904
20
80.924081596872256
30
0
10
141.05848525655429
20
80.57971302445246
30
0
10
140.51390195672229
20
79.96832285814709
30
0
10
140.00873784102129
20
79.324065889104389
30
0
10
139.78810994286025
20
79.042689883688325
30
0
0
LINE
5
140
100
AcDbEntity
8
0
100
AcDbLine
10
139.78810994286025
20
79.04268988368834
30
0
11
139.35299645271942
21
79.47323569628611
31
0
0
LINE
5
141
100
AcDbEntity
8
0
100
AcDbLine
10
139.35299645271942
20
79.47323569628611
30
0
11
139.97265174763473
21
84.496750518302846
31
0
0
LINE
5
142
100
AcDbEntity
8
0
100
AcDbLine
10
139.97265174763473
20
84.496750518302846
30
0
11
145.87635725588822
21
84.422480348254027
31
0
0
LINE
5
143
100
AcDbEntity
8
0
100
AcDbLine
10
145.87635725588822
20
84.422480348254027
30
0
11
145.38928814260191
21
82.566018536563121
31
0
0
LINE
5
144
100
AcDbEntity
8
0
100
AcDbLine
10
145.38928814260191
20
82.566018536563121
30
0
11
141.57969765017179
21
82.613944188222703
31
0
0
LINE
5
145
100
AcDbEntity
8
0
100
AcDbLine
10
141.57969765017179
20
82.613944188222703
30
0
11
141.36522452692904
21
80.924081596872256
31
0
0
LWPOLYLINE
5
146
100
AcDbEntity
8
0
100
AcDbPolyline
90
15
70
1
43
0.0
10
33.528673702052046
20
76.94970228597586
10
33.498829534958375
20
74.577401622811351
10
35.538853443464802
20
74.551737584797152
10
35.568697610558473
20
76.924038247961661
10
36.62734611260948
20
76.910720171008236
10
37.283154303695603
20
78.664587622369211
10
35.590862007366091
20
78.685877105126266
10
35.649189365807629
20
83.322295024822765
10
33.579612933222933
20
80.998840983950345
10
33.550838098859657
20
78.711541143140465
10
30.761259262683133
20
78.74663477954185
10
35.950558297821253
20
84.547348917035862
10
33.895079531795993
20
84.573207381227718
10
28.290008912204037
20
78.283094221972689
10
28.699071106368912
20
77.010459958516975
0
LWPOLYLINE
5
147
100
AcDbEntity
8
0
100
AcDbPolyline
90
15
70
1
43
0.0
10
43.334697059850782
20
76.826339929694981
10
43.304852892757104
20
74.454039266530486
10
45.34487739726282
20
74.428375221018456
10
45.374721564356484
20
76.800675884182951
10
46.433368874408927
20
76.787357822225189
10
47.089178257493614
20
78.541225258590515
10
45.396885961164102
20
78.56251474134757
10
45.455213319605647
20
83.198932661044068
10
43.385636291021676
20
80.875478627669466
10
43.356861456658393
20
78.588178786859601
10
40.567284408479729
20
78.62327240076749
10
45.75658284761856
20
84.42398654575932
10
43.701102889594729
20
84.449845024946839
10
38.096033611001168
20
78.159731848821707
10
38.505095507166402
20
76.887097589114902
0
SPLINE
5
148
100
AcDbEntity
8
0
100
AcDbSpline
70
0
71
3
72
9
73
5
74
0
42
0.000000001
43
0.0000000001
44
0.0000000001
40
0
40
0
40
0
40
0
40
0.1098773575001189
40
0.22514795849131114
40
0.22514795849131114
40
0.22514795849131114
40
0.22514795849131114
10
144.07156448612974
20
74.579643896759194
30
0
10
143.72362952244569
20
74.457384261708256
30
0
10
143.01068148161642
20
74.206863973781026
30
0
10
142.25481750613994
20
74.19317022202641
30
0
10
141.86783245282388
20
74.186159334585298
30
0
0
SPLINE
5
149
100
AcDbEntity
8
0
100
AcDbSpline
70
0
71
3
72
9
73
5
74
0
42
0.000000001
43
0.0000000001
44
0.0000000001
40
0
40
0
40
0
40
0
40
0.15965304363758773
40
0.3045588960546135
40
0.3045588960546135
40
0.3045588960546135
40
0.3045588960546135
10
141.86783245282388
20
74.186159334585298
30
0
10
141.33012448069636
20
74.21688342038459
30
0
10
140.30437675513048
20
74.275493600561035
30
0
10
139.38549373021729
20
74.732118504760223
30
0
10
138.94829905384603
20
74.949375730981458
30
0
0
LINE
5
150
100
AcDbEntity
8
0
100
AcDbLine
10
138.94829905384603
20
74.949375730981458
30
0
11
138.97337981332726
21
76.943035066931401
31
0
0
SPLINE
5
151
100
AcDbEntity
8
0
100
AcDbSpline
70
0
71
3
72
9
73
5
74
0
42
0.000000001
43
0.0000000001
44
0.0000000001
40
0
40
0
40
0
40
0
40
0.06756674583396638
40
0.14151446539125173
40
0.14151446539125173
40
0.14151446539125173
40
0.14151446539125173
10
138.97337981332726
20
76.943035066931401
30
0
10
139.17033185484539
20
76.832767800287456
30
0
10
139.58283600195421
20
76.601819674894244
30
0
10
140.03060056440796
20
76.449780603369987
30
0
10
140.26457783450877
20
76.370333300285168
30
0
0
SPLINE
5
152
100
AcDbEntity
8
0
100
AcDbSpline
70
0
71
3
72
9
73
5
74
0
42
0.000000001
43
0.0000000001
44
0.0000000001
40
0
40
0
40
0
40
0
40
0.075822780385889077
40
0.14908181538045878
40
0.14908181538045878
40
0.14908181538045878
40
0.14908181538045878
10
140.26457783450877
20
76.370333300285168
30
0
10
140.50820361745198
20
76.299648905987297
30
0
10
140.98721762630018
20
76.160670121941607
30
0
10
141.4851672139724
20
76.133428480752684
30
0
10
141.7298604126413
20
76.120041896077183
30
0
0
SPLINE
5
153
100
AcDbEntity
8
0
100
AcDbSpline
70
0
71
3
72
9
73
5
74
0
42
0.000000001
43
0.0000000001
44
0.0000000001
40
0
40
0
40
0
40
0
40
0.090739805935109566
40
0.16912947846099902
40
0.16912947846099902
40
0.16912947846099902
40
0.16912947846099902
10
141.7298604126413
20
76.120041896077183
30
0
10
142.03600687089153
20
76.127033214726595
30
0
10
142.60663175026997
20
76.14006429920758
30
0
10
143.12495698349903
20
76.376372350925138
30
0
10
143.36519508784644
20
76.485898561009449
30
0
0
SPLINE
5
154
100
AcDbEntity
8
0
100
AcDbSpline
70
0
71
3
72
9
73
5
74
0
42
0.000000001
43
0.0000000001
44
0.0000000001
40
0
40
0
40
0
40
0
40
0.067899734255749217
40
0.13942134027163031
40
0.13942134027163031
40
0.13942134027163031
40
0.13942134027163031
10
143.36519508784644
20
76.485898561009449
30
0
10
143.55182462277835
20
76.630822717790053
30
0
10
143.93503878671714
20
76.928401499173546
30
0
10
143.98703677066669
20
77.412087678430808
30
0
10
144.0137111615054
20
77.660213340404567
30
0
0
SPLINE
5
155
100
AcDbEntity
8
0
100
AcDbSpline
70
0
71
3
72
9
73
5
74
0
42
0.000000001
43
0.0000000001
44
0.0000000001
40
0
40
0
40
0
40
0
40
0.084501215061780072
40
0.15487359602819217
40
0.15487359602819217
40
0.15487359602819217
40
0.15487359602819217
10
144.0137111615054
20
77.660213340404567
30
0
10
144.00247512894896
20
77.955039298770359
30
0
10
143.98188175918693
20
78.495395509520549
30
0
10
143.59047974506393
20
78.861605697902689
30
0
10
143.41263218192043
20
79.028006450203421
30
0
0
SPLINE
5
156
100
AcDbEntity
8
0
100
AcDbSpline
70
0
71
3
72
9
73
5
74
0
42
0.000000001
43
0.0000000001
44
0.0000000001
40
0
40
0
40
0
40
0
40
0.068814008054306181
40
0.15038190523342276
40
0.15038190523342276
40
0.15038190523342276
40
0.15038190523342276
10
143.41263218192043
20
79.028006450203421
30
0
10
143.20334837298918
20
79.127385063653449
30
0
10
142.74599239545697
20
79.344560979613419
30
0
10
142.23904073770404
20
79.366603268124251
30
0
10
141.96406762421549
20
79.378559115605043
30
0
0
SPLINE
5
157
100
AcDbEntity
8
0
100
AcDbSpline
70
0
71
3
72
9
73
5
74
0
42
0.000000001
43
0.0000000001
44
0.0000000001
40
0
40
0
40
0
40
0
40
0.050883350122721972
40
0.11419528569189968
40
0.11419528569189968
40
0.11419528569189968
40
0.11419528569189968
10
141.96406762421549
20
79.378559115605043
30
0
10
141.79437370547328
20
79.374511796637108
30
0
10
141.41353703720739
20
79.365428575019138
30
0
10
141.03606294097901
20
79.313472110615422
30
0
10
140.82678446232165
20
79.284666505315698
30
0
0
SPLINE
5
158
100
AcDbEntity
8
0
100
AcDbSpline
70
0
71
3
72
9
73
5
74
0
42
0.000000001
43
0.0000000001
44
0.0000000001
40
0
40
0
40
0
40
0
40
0.12971504057155372
40
0.23543748562202524
40
0.23543748562202524
40
0.23543748562202524
40
0.23543748562202524
10
140.82678446232165
20
79.284666505315698
30
0
10
141.09270276168377
20
79.626073367446025
30
0
10
141.57535408343367
20
80.24573915824331
30
0
10
142.11960411909905
20
80.811869569158915
30
0
10
142.36399784568567
20
81.066088607819211
30
0
0
SPLINE
5
159
100
AcDbEntity
8
0
100
AcDbSpline
70
0
71
3
72
9
73
5
74
0
42
0.000000001
43
0.0000000001
44
0.0000000001
40
0
40
0
40
0
40
0
40
0.019547650143173854
40
0.040996167207523942
40
0.040996167207523942
40
0.040996167207523942
40
0.040996167207523942
10
142.36399784568567
20
81.066088607819211
30
0
10
142.42906872249657
20
81.069775660332937
30
0
10
142.56553814600994
20
81.077508304423063
30
0
10
142.70222855530531
20
81.076774911777903
30
0
10
142.77374271811627
20
81.076391212868089
30
0
0
SPLINE
5
160
100
AcDbEntity
8
0
100
AcDbSpline
70
0
71
3
72
9
73
5
74
0
42
0.000000001
43
0.0000000001
44
0.0000000001
40
0
40
0
40
0
40
0
40
0.057082921732459942
40
0.11144696664272355
40
0.11144696664272355
40
0.11144696664272355
40
0.11144696664272355
10
142.77374271811627
20
81.076391212868089
30
0
10
142.96433090652403
20
81.069218189685188
30
0
10
143.33642951029776
20
81.055213796582493
30
0
10
143.69986691842522
20
80.974406347569072
30
0
10
143.87715238587856
20
80.934988318352254
30
0
0
SPLINE
5
161
100
AcDbEntity
8
0
100
AcDbSpline
70
0
71
3
72
9
73
5
74
0
42
0.000000001
43
0.0000000001
44
0.0000000001
40
0
40
0
40
0
40
0
40
0.052634477606446732
40
0.10477796643566431
40
0.10477796643566431
40
0.10477796643566431
40
0.10477796643566431
10
143.87715238587856
20
80.934988318352254
30
0
10
144.04587230788766
20
80.884614068744881
30
0
10
144.38173828640996
20
80.784335474283523
30
0
10
144.68643302797588
20
80.611092774327133
30
0
10
144.83806650010399
20
80.524877331355484
30
0
0
SPLINE
5
162
100
AcDbEntity
8
0
100
AcDbSpline
70
0
71
3
72
9
73
5
74
0
42
0.000000001
43
0.0000000001
44
0.0000000001
40
0
40
0
40
0
40
0
40
0.0513982797646605
40
0.10201891174975487
40
0.10201891174975487
40
0.10201891174975487
40
0.10201891174975487
10
144.83806650010399
20
80.524877331355484
30
0
10
144.98054207323196
20
80.428273498003193
30
0
10
145.26333758677819
20
80.236527431897841
30
0
10
145.48740097530987
20
79.978621309593166
30
0
10
145.59857869851493
20
79.85065120405126
30
0
0
SPLINE
5
163
100
AcDbEntity
8
0
100
AcDbSpline
70
0
71
3
72
9
73
5
74
0
42
0.000000001
43
0.0000000001
44
0.0000000001
40
0
40
0
40
0
40
0
40
0.052245397551817105
40
0.10883078855765065
40
0.10883078855765065
40
0.10883078855765065
40
0.10883078855765065
10
145.59857869851493
20
79.85065120405126
30
0
10
145.69917467560884
20
79.707431444816052
30
0
10
145.9087230765374
20
79.409094747901349
30
0
10
146.02974303118478
20
79.064999557626379
30
0
10
146.09266604721716
20
78.886090986412427
30
0
0
SPLINE
5
164
100
AcDbEntity
8
0
100
AcDbSpline
70
0
71
3
72
9
73
5
74
0
42
0.000000001
43
0.0000000001
44
0.0000000001
40
0
40
0
40
0
40
0
40
0.061109734647726809
40
0.12696095673288887
40
0.12696095673288887
40
0.12696095673288887
40
0.12696095673288887
10
146.09266604721716
20
78.886090986412427
30
0
10
146.14425660842591
20
78.68824010633719
30
0
10
146.25144062824219
20
78.277187151033132
30
0
10
146.25864041659318
20
77.852301356093221
30
0
10
146.26237475251713
20
77.631924560238673
30
0
0
SPLINE
5
165
100
AcDbEntity
8
0
100
AcDbSpline
70
0
71
3
72
9
73
5
74
0
42
0.000000001
43
0.0000000001
44
0.0000000001
40
0
40
0
40
0
40
0
40
0.097719780137521112
40
0.19435985036082842
40
0.19435985036082842
40
0.19435985036082842
40
0.19435985036082842
10
146.26237475251713
20
77.631924560238673
30
0
10
146.23895951159972
20
77.301616283863666
30
0
10
146.19238774573543
20
76.644649320994475
30
0
10
145.84440110376576
20
76.085637857122364
30
0
10
145.67137435233386
20
75.807684838410211
30
0
0
SPLINE
5
166
100
AcDbEntity
8
0
100
AcDbSpline
70
0
71
3
72
9
73
5
74
0
42
0.000000001
43
0.0000000001
44
0.0000000001
40
0
40
0
40
0
40
0
40
0.099408237726658577
40
0.2035651834533786
40
0.2035651834533786
40
0.2035651834533786
40
0.2035651834533786
10
145.67137435233386
20
75.807684838410211
30
0
10
145.45255786556572
20
75.553951463078462
30
0
10
145.00447208022004
20
75.034363929098873
30
0
10
144.38733250029435
20
74.733556291215351
30
0
10
144.07156448612974
20
74.579643896759194
30
0
0
LWPOLYLINE
5
167
100
AcDbEntity
8
0
100
AcDbPolyline
90
15
70
1
43
0.0
10
134.32845646965887
20
76.939640808134655
10
134.2986123025652
20
74.567340144970146
10
136.33863621107164
20
74.541676106955947
10
136.36848037816532
20
76.913976770120456
10
137.42712828421702
20
76.900658700664877
10
138.08293766730174
20
78.654526137030189
10
136.39064477497294
20
78.675815627285075
10
136.44897213341446
20
83.31223354698156
10
134.37939570082978
20
80.98877950610914
10
134.3506208664665
20
78.70147966529926
10
131.56104203028997
20
78.736573301700645
10
136.75034106542807
20
84.537287439194643
10
134.69486229940281
20
84.563145903386499
10
129.08979167981087
20
78.273032744131484
10
129.49885387397575
20
77.00039848067577
0
LWPOLYLINE
5
168
100
AcDbEntity
8
0
100
AcDbPolyline
90
15
70
1
43
0.0
10
233.65617583708075
20
76.948098871632823
10
233.62633166998708
20
74.575798208468299
10
235.66635557849352
20
74.550134170454101
10
235.69619974558719
20
76.922434833618624
10
236.75484824763822
20
76.909116756665199
10
237.41065643872432
20
78.662984208026174
10
235.71836414239482
20
78.684273690783229
10
235.77669150083636
20
83.320691610479713
10
233.70711506825165
20
80.997237569607293
10
233.67834023388838
20
78.709937728797428
10
230.88876139771187
20
78.745031365198798
10
236.07806043284998
20
84.545745502692824
10
234.02258166682472
20
84.571603966884666
10
228.41751104723275
20
78.281490807629652
10
228.82657324139763
20
77.008856544173938
0
LWPOLYLINE
5
169
100
AcDbEntity
8
0
100
AcDbPolyline
90
4
70
1
43
0.0
10
63.703692953546778
20
12.002676390115292
42
-1.0116169176737801
10
66.703492862327067
20
12.002676390114381
10
66.703492862327366
20
9.0445002245591315
42
-1.0082004501818076
10
63.70369295354709
20
9.0200005587934005
0
LWPOLYLINE
5
170
100
AcDbEntity
8
0
100
AcDbPolyline
90
7
70
1
43
0.0
10
240.70359290793564
20
25.480301073244476
10
240.70359290793567
20
37.480301073244618
10
250.90359290793569
20
37.48030107324513
10
237.70359290793564
20
73.646721963347034
10
224.50359290793563
20
37.48030107324513
10
234.70359290793567
20
37.480301073244476
10
234.70359290793564
20
25.480301073244473
42
0.99999999999999989
0
LWPOLYLINE
5
171
100
AcDbEntity
8
0
100
AcDbPolyline
90
4
70
1
43
0.0
10
208.70369295354678
20
12.002676390115139
42
-1.0116169176725351
10
211.70349286232707
20
12.002676390115138
10
211.70349286232707
20
9.0200005587922618
42
-1.008200450181554
10
208.70369295354678
20
9.0445002245572415
0
CIRCLE
5
172
100
AcDbEntity
8
0
100
AcDbCircle
10
277.70359290793567
20
69.893523545678562
30
0
40
1.4999999999999858
210
0
220
-0
230
1
0
CIRCLE
5
173
100
AcDbEntity
8
0
100
AcDbCircle
10
267.70359290793567
20
79.893523545678562
30
0
40
1.4999999999999858
210
0
220
-0
230
1
0
CIRCLE
5
174
100
AcDbEntity
8
0
100
AcDbCircle
10
7.7035929079356986
20
79.893523545678576
30
0
40
1.5000000000000002
210
0
220
-0
230
1
0
CIRCLE
5
175
100
AcDbEntity
8
0
100
AcDbCircle
10
-2.296407092064312
20
69.893523545678562
30
0
40
1.4999999999999987
210
0
220
-0
230
1
0
LWPOLYLINE
5
176
100
AcDbEntity
8
0
100
AcDbPolyline
90
4
70
1
43
0.0
10
263.70369295354675
20
12.002676390117273
42
-1.0116169176734762
10
266.70349286232704
20
12.002676390115653
10
266.70349286232738
20
9.0445002245594033
42
-1.0082004501812489
10
263.70369295354703
20
9.0200005587946315
0
LWPOLYLINE
5
177
100
AcDbEntity
8
0
100
AcDbPolyline
90
4
70
1
43
0.0
10
8.7036929535467902
20
12.002676390112931
42
-1.0116169176739285
10
11.703492862327082
20
12.002676390113212
10
11.703492862327078
20
9.0200005587920877
42
-1.0082004501816739
10
8.703692953546792
20
9.0445002245577726
0
LWPOLYLINE
5
178
100
AcDbEntity
8
0
100
AcDbPolyline
90
7
70
1
43
0.0
10
140.70359290793567
20
37.480301073244476
10
150.90359290793569
20
37.48030107324513
10
137.70359290793567
20
73.646721963347034
10
124.50359290793565
20
37.48030107324513
10
134.70359290793567
20
37.480301073244476
10
134.70359290793564
20
25.480301073244476
42
0.99999999999999989
10
140.70359290793567
20
25.480301073244476
0
LWPOLYLINE
5
179
100
AcDbEntity
8
0
100
AcDbPolyline
90
4
70
1
43
0.0
10
108.70369295354679
20
12.002676390112065
42
-1.0116169176746117
10
111.70349286232708
20
12.002676390112054
10
111.70349286232708
20
9.0200005587922618
42
-1.0082004501820885
10
108.70369295354679
20
9.0445002245588331
0
LWPOLYLINE
5
180
100
AcDbEntity
8
0
100
AcDbPolyline
90
7
70
1
43
0.0
10
40.703592907935644
20
25.480301073244476
10
40.703592907935686
20
37.480301073244618
10
50.903592907935703
20
37.48030107324513
10
37.703592907935679
20
73.646721963347034
10
24.503592907935658
20
37.48030107324513
10
34.703592907935672
20
37.480301073244476
10
34.703592907935644
20
25.480301073244473
42
0.99999999999999989
0
LWPOLYLINE
5
181
100
AcDbEntity
8
0
100
AcDbPolyline
90
4
70
1
43
0.0
10
163.70369295354675
20
12.002676390117266
42
-1.0116169176734762
10
166.70349286232707
20
12.002676390115646
10
166.70349286232735
20
9.0445002245615846
42
-1.0082004501821022
10
163.70369295354709
20
9.0200005587949761
0
LWPOLYLINE
5
182
100
AcDbEntity
8
0
100
AcDbPolyline
90
8
70
1
43
0.0
10
12.703592907935686
20
-10.106476454321442
42
-0.41421356237309553
10
-12.296407092064307
20
14.893523545678553
10
-12.296407092064301
20
64.893523545678548
42
-0.4142135623730947
10
12.703592907935679
20
89.893523545678562
10
262.70359290793567
20
89.893523545678562
42
-0.41421356237309503
10
287.70359290793567
20
64.893523545678562
10
287.70359290793567
20
14.893523545678555
42
-0.41421356237309509
10
262.70359290793567
20
-10.106476454321458
0
ENDSEC
0
SECTION
2
OBJECTS
0
DICTIONARY
5
C
100
AcDbDictionary
3
ACAD_GROUP
350
D
3
ACAD_MLINESTYLE
350
17
0
DICTIONARY
5
D
100
AcDbDictionary
0
DICTIONARY
5
1A
330
C
100
AcDbDictionary
0
DICTIONARY
5
17
100
AcDbDictionary
0
ENDSEC
0
EOF
